<svg id="Layer_1" data-name="Layer 1" xmlns="http://www.w3.org/2000/svg" viewBox="0 0 400.05 100"><defs><style>.cls-1{fill:#48bfe3;}.cls-1,.cls-2,.cls-3,.cls-4,.cls-5,.cls-7{fill-rule:evenodd;}.cls-2{fill:#4ea8de;}.cls-3{fill:#5390d9;}.cls-4{fill:#5e60ce;}.cls-5{fill:#480ca8;}.cls-6,.cls-7{fill:#fff;}</style></defs><path class="cls-1" d="M51.37.47V17A32.86,32.86,0,0,0,30.88,24.1L19.15,12.38A49.46,49.46,0,0,1,51.37.47Z"/><path class="cls-2" d="M26.14,28.7a32.83,32.83,0,0,0-7.63,18H2A49.33,49.33,0,0,1,14.44,17Z"/><path class="cls-3" d="M25.48,70.49,13.75,82.22A49.35,49.35,0,0,1,2,53.3H18.51A32.8,32.8,0,0,0,25.48,70.49Z"/><path class="cls-4" d="M51.37,83V99.54a49.48,49.48,0,0,1-33-12.6l11.7-11.7A32.78,32.78,0,0,0,51.37,83Z"/><path class="cls-5" d="M100.91,50A49.54,49.54,0,0,1,51.37,99.54V83a32.8,32.8,0,0,1-21.3-7.78l-11.7,11.7a49,49,0,0,1-4.62-4.72L25.48,70.49a32.8,32.8,0,0,1-7-17.19H2a50.12,50.12,0,0,1,0-6.6H18.51a32.89,32.89,0,0,1,7.62-18L14.43,17a50.2,50.2,0,0,1,4.72-4.62L30.88,24.1A32.86,32.86,0,0,1,51.37,17V.46A49.63,49.63,0,0,1,92,21.67h0A49.37,49.37,0,0,1,100.91,50Z"/><rect class="cls-6" x="82.74" y="66.02" width="3.3" height="3.3" rx="1.65"/><rect class="cls-6" x="82.74" y="30.19" width="3.3" height="3.3" rx="1.65"/><rect class="cls-6" x="72.01" y="82.05" width="3.3" height="3.3" rx="1.65"/><rect class="cls-6" x="72.01" y="15.47" width="3.3" height="3.3" rx="1.65"/><path class="cls-7" d="M51.37,36.79A13.22,13.22,0,0,0,38.46,47.23a3.42,3.42,0,0,1,0,5.54,13.21,13.21,0,1,0,12.91-16Zm4.21,17.42A6,6,0,1,1,57.32,50,6,6,0,0,1,55.58,54.21Z"/><path class="cls-7" d="M51.37,23.37A26.63,26.63,0,1,0,78,50,26.63,26.63,0,0,0,51.37,23.37Zm0,43.14a16.5,16.5,0,0,1-16.2-13.34,3.41,3.41,0,0,1,0-6.34,16.51,16.51,0,1,1,16.2,19.68Z"/><rect class="cls-6" x="87.7" y="46.7" width="6.6" height="6.6" rx="3.3"/><path class="cls-6" d="M116.12,32.25h-1.64V7.75H126.7V9.29H116.12v9.59h9.77v1.54h-9.77Z"/><path class="cls-6" d="M132.19,18.81h10.05v1.54H132.19V30.64H142.8v1.61H130.61V7.75h12V9.29H132.19Z"/><path class="cls-6" d="M161.38,32.25l-6.27-9.35h-6.19v9.35h-1.65V7.75h8c4.1,0,7,2.9,7,7.63,0,4.06-2.35,6.72-5.5,7.28l6.48,9.48v.11ZM155.32,21.4c3,0,5.4-2.1,5.4-6.06s-2.35-6.05-5.4-6.05h-6.44V21.4Z"/><path class="cls-6" d="M168.41,18.81h10.05v1.54H168.41V30.64H179v1.61H166.84V7.75h12V9.29H168.41Z"/><path class="cls-6" d="M180.91,32.25V32l9.76-24.36h.74L201.07,32v.21h-1.71l-2.77-7.07H185.42l-2.76,7.07ZM191,10.58l-5,13.06H196Z"/><path class="cls-6" d="M204,25.84c.21,4.17,4,5.22,6.79,5.22s6.3-1.54,6.37-5.39c.07-4.13-3.39-4.73-6.58-5.29-3.81-.56-7.66-1.47-7.66-6.37,0-4.69,4-6.61,7.52-6.61,3.85,0,7.53,1.75,7.77,6.37h-1.57c-.25-3.89-3.61-4.83-6.16-4.83-2.8,0-5.92,1.26-5.92,5,0,4.16,3.61,4.51,6.3,4.9,4,.66,8,1.71,7.95,6.82-.07,4.83-4.1,6.9-8,6.9s-8.23-1.58-8.44-6.76Z"/><path class="cls-6" d="M235.44,7.75v1.5h-6.76v23H227v-23h-6.76V7.75Z"/><path class="cls-6" d="M252.62,32.25l-6.26-9.35h-6.2v9.35h-1.64V7.75h8c4.09,0,7,2.9,7,7.63,0,4.06-2.35,6.72-5.5,7.28l6.48,9.48v.11ZM246.57,21.4c3,0,5.39-2.1,5.39-6.06s-2.35-6.05-5.39-6.05h-6.44V21.4Z"/><path class="cls-6" d="M255.7,32.25V32l9.77-24.36h.73L275.86,32v.21h-1.71l-2.77-7.07H260.22l-2.77,7.07Zm10.12-21.67-5,13.06h10Z"/><path class="cls-6" d="M294.87,7.4c4.16,0,7.94,2.1,9.13,7.1h-1.57a7.4,7.4,0,0,0-7.6-5.6C289.06,8.9,286,13.63,286,20c0,6.72,3.05,11,8.86,11,3.43,0,6.51-1.54,7.7-6.05h1.57a9.16,9.16,0,0,1-9.27,7.63c-6.55,0-10.47-4.83-10.47-12.6C284.4,12.54,288.53,7.4,294.87,7.4Z"/><path class="cls-6" d="M305.26,32.25V32L315,7.68h.73L325.42,32v.21h-1.71l-2.77-7.07H309.78L307,32.25Zm10.12-21.67-5,13.06h10Zm-4.62-8.85h1.33a3,3,0,0,0,3.29,2.76,2.92,2.92,0,0,0,3.29-2.76H320c-.32,2.8-2.21,4-4.62,4S311.07,4.53,310.76,1.73Z"/><path class="cls-6" d="M339.28,7.75v1.5h-6.75v23h-1.65v-23h-6.75V7.75Z"/><path class="cls-6" d="M356.47,32.25,350.2,22.9H344v9.35h-1.65V7.75h8.05c4.1,0,7,2.9,7,7.63,0,4.06-2.34,6.72-5.49,7.28l6.47,9.48v.11ZM350.41,21.4c3,0,5.39-2.1,5.39-6.06s-2.34-6.05-5.39-6.05H344V21.4Z"/><path class="cls-6" d="M363.5,18.81h10.05v1.54H363.5V30.64h10.61v1.61H361.93V7.75h12V9.29H363.5Z"/><path class="cls-6" d="M115.29,75.19c.46,6.08,6.31,8.55,11,8.55s10.33-2.58,10.38-9-5.22-7.57-10.72-8.49c-6.2-1-12.45-2-12.45-10.15,0-7.4,6.14-11.13,12.22-11.13,5.85,0,12.33,2.64,12.73,10.44h-2.58c-.46-6.08-5.79-7.86-10.1-7.86s-9.52,2.12-9.52,8.49,5.51,7.17,10.16,7.74c6.54,1,13,2.64,13,11-.17,7.51-6.37,11.47-13,11.47-5.91,0-13.25-2.81-13.6-11.07Zm11.64,24.67H125l1.15-4.71a1.73,1.73,0,0,1-1.32-1.83,1.79,1.79,0,0,1,1.83-1.9,1.9,1.9,0,0,1,1.84,1.5,7.19,7.19,0,0,1-.23,2C127.85,96.53,127.33,98.25,126.93,99.86Z"/><path class="cls-6" d="M178.68,45.53V48H167.61V85.69h-2.69V48H153.84V45.53Z"/><path class="cls-6" d="M194.46,85.69V83.34h6.37V47.83h-6v-2.3h14.63v2.3h-6V83.34h6.37v2.35Z"/><path class="cls-6" d="M226.47,85.69V83.34h6.37V47.83h-6v-2.3H241.5v2.3h-6V83.34h6.36v2.35Z"/><path class="cls-6" d="M266.39,85.69h-2.64V45.47h1L288,79.15l-.23-14.46V45.47h2.63V85.69h-.86L266.22,52l.17,13.48Z"/><path class="cls-6" d="M333.16,45.53v2.41H322.61V85.69h-2.7V47.94H309.47V45.53ZM319.57,98.65l1.14-4.7a1.75,1.75,0,0,1-1.32-1.84c0-2.69,4.25-2.46,3.79.35l-1.78,6.19Z"/><path class="cls-6" d="M344.92,85.69v-.35l16-39.92h1.2L378,85.34v.35h-2.81L370.62,74.1h-18.3l-4.53,11.59ZM361.5,50.18l-8.26,21.4H369.7Zm-7.57-14.52h2.18c.4,2.81,2.12,4.54,5.39,4.54s5-1.55,5.39-4.54h2.18c-.51,4.59-3.61,6.54-7.57,6.54S354.44,40.25,353.93,35.66Z"/></svg>