<svg xmlns="http://www.w3.org/2000/svg" viewBox="0 0 958.59 351.86"><defs><style>.a{fill:#4e3593;}.b{fill:#49bbe0;}.b,.c,.d,.e,.f,.h{fill-rule:evenodd;}.c{fill:#4fa4da;}.d{fill:#588bc8;}.e{fill:#5f62ab;}.f,.k{fill:#4e3192;}.g{opacity:0.68;}.h,.j{fill:#fff;}.i{opacity:0.31;}</style></defs><path class="a" d="M487,457.84h-3.3V408.58h24.56v3.1H487V431H506.6v3.1H487Z" transform="translate(-60.98 -337)"/><path class="a" d="M519.9,430.82h20.19v3.09H519.9V454.6h21.32v3.24H516.73V408.58h24.21v3.1h-21Z" transform="translate(-60.98 -337)"/><path class="a" d="M579.22,457.84l-12.6-18.79H554.17v18.79h-3.31V408.58H567c8.24,0,14.08,5.84,14.08,15.34,0,8.17-4.72,13.51-11,14.64l13,19.07v.21ZM567,436c6,0,10.84-4.23,10.84-12.18,0-8.23-4.71-12.17-10.84-12.17H554.1V436Z" transform="translate(-60.98 -337)"/><path class="a" d="M594,430.82h20.19v3.09H594V454.6h21.32v3.24H590.83V408.58H615v3.1H594Z" transform="translate(-60.98 -337)"/><path class="a" d="M621.48,457.84v-.42l19.63-49h1.48l19.42,49v.42h-3.45L653,443.63H630.56L625,457.84Zm20.34-43.56-10.14,26.25h20.2Z" transform="translate(-60.98 -337)"/><path class="a" d="M668.49,445c.42,8.38,8,10.49,13.65,10.49,5.84,0,12.66-3.1,12.81-10.84.14-8.3-6.83-9.5-13.23-10.62-7.67-1.13-15.41-3-15.41-12.81,0-9.43,8.09-13.3,15.12-13.3,7.75,0,15.13,3.52,15.63,12.81h-3.17c-.49-7.82-7.25-9.71-12.39-9.71-5.62,0-11.89,2.53-11.89,10.13,0,8.37,7.25,9.08,12.67,9.85,8.09,1.34,16.11,3.45,16,13.72-.14,9.71-8.23,13.86-16,13.86s-16.54-3.16-17-13.58Z" transform="translate(-60.98 -337)"/><path class="a" d="M730.66,408.58v3H717.07v46.23h-3.3V411.61H700.19v-3Z" transform="translate(-60.98 -337)"/><path class="a" d="M764.11,457.84l-12.59-18.79H739.06v18.79h-3.3V408.58h16.18c8.23,0,14.07,5.84,14.07,15.34,0,8.17-4.71,13.51-11,14.64l13,19.07v.21ZM751.94,436c6,0,10.84-4.23,10.84-12.18,0-8.23-4.72-12.17-10.84-12.17H739V436Z" transform="translate(-60.98 -337)"/><path class="a" d="M772.67,457.84v-.42l19.63-49h1.48l19.42,49v.42h-3.45l-5.56-14.21H781.74l-5.55,14.21ZM793,414.28l-10.13,26.25h20.2Zm-9.28-17.8h2.67c.49,3.45,2.6,5.56,6.61,5.56s6.12-1.9,6.62-5.56h2.67c-.63,5.63-4.43,8-9.29,8S784.35,402.11,783.72,396.48Z" transform="translate(-60.98 -337)"/><path class="a" d="M852.68,407.88c8.37,0,16,4.22,18.37,14.28h-3.17c-2.25-8.23-8.87-11.26-15.27-11.26-11.61,0-17.73,9.5-17.73,22.31,0,13.51,6.12,22.17,17.8,22.17,6.89,0,13.09-3.1,15.48-12.18h3.17c-2.12,10.49-10.42,15.34-18.65,15.34-13.16,0-21-9.71-21-25.33C831.64,418.22,839.94,407.88,852.68,407.88Z" transform="translate(-60.98 -337)"/><path class="a" d="M874.21,457.84v-.42l19.64-49h1.47l19.43,49v.42H911.3l-5.56-14.21H883.29l-5.56,14.21Zm20.34-43.56-10.13,26.25h20.19Zm-9.29-17.8h2.67c.5,3.45,2.61,5.56,6.62,5.56s6.12-1.9,6.61-5.56h2.68c-.64,5.63-4.43,8-9.29,8S885.89,402.11,885.26,396.48Z" transform="translate(-60.98 -337)"/><path class="a" d="M943.25,408.58v3H929.66v46.23h-3.3V411.61H912.78v-3Z" transform="translate(-60.98 -337)"/><path class="a" d="M978.43,457.84l-12.6-18.79H953.38v18.79h-3.31V408.58h16.19c8.23,0,14.07,5.84,14.07,15.34,0,8.17-4.71,13.51-11.05,14.64l13,19.07v.21ZM966.26,436c6,0,10.83-4.23,10.83-12.18,0-8.23-4.71-12.17-10.83-12.17h-13V436Z" transform="translate(-60.98 -337)"/><path class="a" d="M993.21,430.82h20.19v3.09H993.21V454.6h21.32v3.24H990V408.58h24.21v3.1h-21Z" transform="translate(-60.98 -337)"/><path class="a" d="M505.66,590.07c-.16,6.7,4.83,11.38,12.32,11.38,7.17,0,12-3.59,12-9.82,0-8.89-9.67-9.52-15.13-10-17-1.25-34-10.46-34-33.23,0-21.36,14.66-34.62,36.49-34.62,22.15,0,36.5,14.35,35.88,35.72H528c.47-6.55-3.74-11.23-10.14-11.23s-10.45,3.74-10.45,10c0,4.83,3.59,8.26,12,9.36,19.81,2,37.28,7.79,37.28,34.31,0,20.9-15.29,34.15-38.37,34.15-23.55,0-38.83-14.34-38.21-36Zm23.7,60.51-5,14.82H512.52L515.8,654a11.49,11.49,0,0,1-8.58-11.23c0-8.26,7-12,13.41-11.85,5.77.31,10.29,4.68,10.29,11.85A21.25,21.25,0,0,1,529.36,650.58Z" transform="translate(-60.98 -337)"/><path class="a" d="M631.83,515.36v25H610.47v84.21h-26.2V540.32H562.74v-25Z" transform="translate(-60.98 -337)"/><path class="a" d="M640.26,624.53V601.45h10.92v-63h-9.83V515.36h46.79v23.08h-10v63h11.07v23.08Z" transform="translate(-60.98 -337)"/><path class="a" d="M701.4,624.53V601.45h10.92v-63h-9.83V515.36h46.79v23.08h-10v63h11.07v23.08Z" transform="translate(-60.98 -337)"/><path class="a" d="M765.81,624.53V514.42h8.42l46,53V515.36h27V625.31h-7.8l-46.64-54v53.18Z" transform="translate(-60.98 -337)"/><path class="a" d="M928.64,515.36v25H906.81v84.21h-26V540.32H858.93v-25Zm-41.8,149.73,2.65-10.76c-5.45,0-9.51-5.15-9.51-11.39,0-8.11,6.08-13,13.88-13,6.71,0,13.57,4.37,13.57,12.64,0,2.18-1.09,8.89-6.08,22.46Z" transform="translate(-60.98 -337)"/><path class="a" d="M991.65,624.53,986.82,611h-31l-4.84,13.56H922.72v-1.71l41.95-109h13.41l41.49,109v1.71ZM963.73,479.65c.47,4.67,3.59,7.79,8,8,4.37,0,7.49-3.12,7.95-8h20.75c0,16.84-11.55,28.07-29,28.07-16.69,0-28.23-11.23-28.7-28.07Zm15.45,109.17c-5.15-15.75-6.24-21.37-8-31a280.12,280.12,0,0,1-7.8,31Z" transform="translate(-60.98 -337)"/><path class="b" d="M236.9,337v58.64A116.77,116.77,0,0,0,164.12,421l-41.65-41.64A175.67,175.67,0,0,1,236.9,337Z" transform="translate(-60.98 -337)"/><path class="c" d="M147.27,437.28a116.59,116.59,0,0,0-27.06,63.92H61.36a175.44,175.44,0,0,1,44.36-105.47Z" transform="translate(-60.98 -337)"/><path class="d" d="M144.94,585.7l-41.66,41.65a175.28,175.28,0,0,1-41.9-102.69h58.83A116.46,116.46,0,0,0,144.94,585.7Z" transform="translate(-60.98 -337)"/><path class="e" d="M236.9,630.21v58.65a175.61,175.61,0,0,1-117.2-44.75l41.55-41.55A116.57,116.57,0,0,0,236.9,630.21Z" transform="translate(-60.98 -337)"/><path class="f" d="M412.83,512.93A175.92,175.92,0,0,1,236.91,688.85V630.21a117.19,117.19,0,0,1-75.66-27.65L119.7,644.11c-.4-.33-.79-.69-1.17-1-.76-.7-1.54-1.41-2.29-2.12-.34-.31-.66-.63-1-1-.82-.8-1.64-1.59-2.45-2.4l-.08-.08c-3.27-3.26-6.43-6.65-9.43-10.17l41.66-41.65a113.35,113.35,0,0,1-7.72-10.94,116,116,0,0,1-14.42-34.64,112.84,112.84,0,0,1-2.59-15.46H61.38c0-.39-.07-.78-.08-1.17s-.06-1-.09-1.51c-.05-1.11-.11-2.23-.14-3.34,0-.8,0-1.59,0-2.4,0-1.1,0-2.21,0-3.31s0-2.14,0-3.23,0-2.38.08-3.57l.09-1.65c0-.79.07-1.6.12-2.4a8.48,8.48,0,0,1,.06-.88h58.84a116.56,116.56,0,0,1,27.06-63.92l-41.55-41.55.49-.57c1.11-1.22,2.22-2.43,3.36-3.61.35-.38.71-.75,1.07-1.12,1.24-1.28,2.48-2.52,3.76-3.76.37-.37.75-.73,1.12-1.08,1.19-1.14,2.4-2.25,3.61-3.36.36-.29.71-.61,1.06-.93.75-.67,1.52-1.34,2.28-2L164.11,421a116.85,116.85,0,0,1,72.8-25.31V337a175.4,175.4,0,0,1,101.45,32.2h0a176.76,176.76,0,0,1,42.85,43.08s0,0,0,.06A175.33,175.33,0,0,1,412.83,512.93Z" transform="translate(-60.98 -337)"/><g class="g"><path class="h" d="M112.7,637.51a2.56,2.56,0,0,1-.38-.38Z" transform="translate(-60.98 -337)"/><path d="M112.32,637.13a2.56,2.56,0,0,0,.38.38l-.38-.38Z" transform="translate(-60.98 -337)"/></g><g class="i"><path d="M213.36,462.18h0Z" transform="translate(-60.98 -337)"/></g><rect class="j" x="287.34" y="232.84" width="11.73" height="11.73" rx="5.86"/><rect class="j" x="287.34" y="105.56" width="11.73" height="11.73" rx="5.86"/><rect class="j" x="249.21" y="289.75" width="11.73" height="11.73" rx="5.86"/><rect class="j" x="249.21" y="53.31" width="11.73" height="11.73" rx="5.86"/><rect class="j" x="192.95" y="477.33" width="6.2" height="6.2" rx="3.1" transform="translate(-343.27 -57.66) rotate(-45)"/><circle class="j" cx="175.92" cy="175.93" r="94.58"/><rect class="j" x="304.94" y="164.2" width="23.46" height="23.46" rx="11.73"/><circle class="k" cx="175.92" cy="175.93" r="21.14"/><path class="f" d="M236.91,454.29a58.66,58.66,0,0,0-57.57,47.4,12.13,12.13,0,0,0,0,22.47,58.64,58.64,0,1,0,57.57-69.87Zm0,105.55A47,47,0,0,1,191,522.75a12.12,12.12,0,0,0,0-19.65,46.92,46.92,0,1,1,45.88,56.74Z" transform="translate(-60.98 -337)"/></svg>